<?xml version="1.0" encoding="UTF-8" ?>
<!DOCTYPE svg PUBLIC "-//W3C//DTD SVG 1.1//EN" "http://www.w3.org/Graphics/SVG/1.1/DTD/svg11.dtd">
<svg width="900pt" height="300pt" viewBox="0 0 900 300" version="1.1" xmlns="http://www.w3.org/2000/svg">
<g id="#a869c9ff">
<path fill="#a869c9" opacity="1.00" d=" M 141.32 19.70 C 141.38 19.34 141.51 18.63 141.57 18.27 C 142.21 18.61 143.50 19.29 144.14 19.63 C 168.40 48.54 192.68 77.44 217.09 106.22 C 217.35 106.89 217.87 108.21 218.12 108.87 C 198.45 106.72 178.68 105.52 159.00 103.35 C 153.56 102.76 148.12 102.25 142.65 102.05 C 140.57 96.74 141.70 90.95 141.47 85.40 C 141.41 63.50 141.65 41.60 141.32 19.70 Z" />
</g>
<g id="#824aa3ff">
<path fill="#824aa3" opacity="1.00" d=" M 135.21 26.27 C 137.16 24.00 138.89 21.49 141.32 19.70 C 141.65 41.60 141.41 63.50 141.47 85.40 C 137.30 86.53 133.13 87.68 128.88 88.48 C 121.61 89.74 115.38 94.46 108.11 95.61 C 103.04 98.82 97.94 102.16 92.05 103.66 C 94.15 104.00 96.24 104.39 98.34 104.71 C 94.58 105.43 90.77 105.95 86.94 106.19 C 80.31 106.64 73.72 107.85 67.06 107.52 C 89.75 80.41 112.51 53.37 135.21 26.27 Z" />
</g>
<g id="#8658a7ff">
<path fill="#8658a7" opacity="1.00" d=" M 128.88 88.48 C 133.13 87.68 137.30 86.53 141.47 85.40 C 141.70 90.95 140.57 96.74 142.65 102.05 C 138.69 100.78 134.56 101.65 130.55 102.11 C 121.47 102.93 112.36 103.55 103.32 104.74 C 101.66 104.77 100.00 104.74 98.34 104.71 C 96.24 104.39 94.15 104.00 92.05 103.66 C 97.94 102.16 103.04 98.82 108.11 95.61 C 115.38 94.46 121.61 89.74 128.88 88.48 Z" />
</g>
<g id="#ffffffff">
<path fill="#ffffff" opacity="1.00" d=" M 445.56 86.00 C 450.39 86.00 455.23 86.00 460.06 86.00 C 460.08 105.39 460.03 124.78 460.09 144.17 C 464.99 136.00 472.92 129.31 482.50 127.66 C 492.19 126.02 503.41 127.07 510.86 134.13 C 518.01 141.03 519.96 151.47 520.27 161.01 C 520.38 180.36 520.28 199.71 520.31 219.06 C 515.50 219.06 510.69 219.06 505.88 219.06 C 505.86 201.70 505.90 184.34 505.86 166.98 C 505.74 159.39 504.86 151.13 499.82 145.09 C 494.55 138.91 485.33 137.90 477.91 140.09 C 467.03 143.48 460.28 154.88 460.11 165.94 C 459.99 183.64 460.10 201.35 460.06 219.06 C 455.23 219.06 450.39 219.06 445.56 219.06 C 445.56 174.71 445.56 130.35 445.56 86.00 Z" />
<path fill="#ffffff" opacity="1.00" d=" M 627.56 86.00 C 632.39 86.00 637.23 86.00 642.06 86.00 C 642.06 130.35 642.06 174.71 642.06 219.06 C 637.23 219.06 632.39 219.06 627.56 219.06 C 627.56 174.71 627.56 130.35 627.56 86.00 Z" />
<path fill="#ffffff" opacity="1.00" d=" M 288.47 93.04 C 309.85 92.98 331.22 92.96 352.60 93.05 C 352.54 97.36 352.56 101.68 352.58 105.99 C 336.16 106.16 319.73 106.01 303.31 106.07 C 303.31 120.04 303.33 134.01 303.30 147.98 C 318.49 148.02 333.69 147.98 348.88 148.00 C 348.87 152.35 348.88 156.71 348.88 161.06 C 333.69 161.07 318.50 161.05 303.31 161.07 C 303.32 176.04 303.32 191.02 303.31 205.99 C 320.66 206.01 338.02 205.99 355.38 206.00 C 355.37 210.35 355.38 214.71 355.38 219.06 C 333.09 219.07 310.81 219.05 288.53 219.07 C 288.45 177.06 288.55 135.05 288.47 93.04 Z" />
<path fill="#ffffff" opacity="1.00" d=" M 389.86 130.82 C 402.90 125.51 418.20 125.58 431.11 131.24 C 431.13 136.15 431.13 141.06 431.12 145.97 C 423.77 140.99 414.79 138.17 405.89 139.26 C 397.69 139.98 390.05 144.50 385.25 151.15 C 378.50 160.20 377.25 172.22 378.88 183.10 C 380.24 192.38 385.57 201.39 394.12 205.68 C 405.96 211.64 420.79 209.13 430.96 200.96 C 430.92 205.58 430.95 210.21 430.94 214.83 C 420.48 220.92 407.74 222.25 395.98 220.02 C 383.78 217.74 373.20 209.13 367.95 197.96 C 362.75 186.99 362.47 174.26 364.77 162.51 C 367.50 148.79 376.86 136.31 389.86 130.82 Z" />
<path fill="#ffffff" opacity="1.00" d=" M 549.19 137.22 C 556.83 129.93 567.57 126.35 578.06 127.04 C 588.58 127.16 599.28 131.89 605.24 140.78 C 612.71 151.25 613.23 164.68 612.94 177.06 C 591.76 177.07 570.58 177.05 549.40 177.07 C 549.68 185.40 551.61 194.20 557.41 200.51 C 563.03 206.82 571.81 209.31 580.04 208.92 C 589.78 208.77 599.14 204.87 606.76 198.93 C 606.73 203.48 606.79 208.03 606.71 212.57 C 596.04 219.89 582.57 221.73 569.91 220.77 C 559.86 219.96 550.05 215.19 543.86 207.11 C 535.67 196.72 533.88 182.85 534.49 170.01 C 535.08 157.77 539.98 145.51 549.19 137.22 M 559.34 145.34 C 553.74 150.39 550.70 157.65 549.58 164.99 C 565.77 165.01 581.95 165.00 598.14 165.00 C 598.08 156.72 595.67 147.52 588.45 142.63 C 579.65 136.89 566.94 138.09 559.34 145.34 Z" />
<path fill="#ffffff" opacity="1.00" d=" M 693.54 127.72 C 705.29 125.98 718.18 126.94 728.29 133.75 C 737.77 140.03 743.42 150.85 745.13 161.91 C 746.81 173.24 746.43 185.24 741.87 195.90 C 736.95 207.54 726.45 216.73 714.07 219.56 C 703.43 221.97 691.87 221.62 681.77 217.27 C 669.23 211.85 660.52 199.46 658.35 186.12 C 656.49 174.42 657.18 161.97 662.05 151.04 C 667.58 138.45 680.02 129.62 693.54 127.72 M 695.54 139.68 C 688.49 140.94 682.12 145.23 678.24 151.23 C 672.88 159.39 671.75 169.56 672.42 179.09 C 673.03 187.67 676.22 196.45 682.86 202.20 C 690.41 208.92 701.48 210.24 711.03 207.88 C 717.70 206.27 723.45 201.63 726.63 195.58 C 730.95 187.49 731.61 178.00 731.02 169.00 C 730.39 160.29 727.62 151.11 720.82 145.22 C 713.99 139.26 704.18 138.13 695.54 139.68 Z" />
<path fill="#ffffff" opacity="1.00" d=" M 798.06 127.96 C 808.10 125.77 819.95 126.91 827.60 134.43 C 834.86 141.54 837.04 152.18 837.28 161.98 C 837.36 181.01 837.29 200.04 837.31 219.06 C 832.50 219.06 827.68 219.06 822.88 219.06 C 822.87 202.03 822.89 185.00 822.87 167.97 C 822.76 160.11 821.98 151.50 816.80 145.18 C 811.25 138.59 801.31 137.76 793.59 140.48 C 783.36 144.30 777.24 155.29 777.10 165.90 C 777.01 183.62 777.09 201.34 777.06 219.06 C 772.23 219.06 767.39 219.06 762.56 219.06 C 762.56 189.04 762.56 159.02 762.56 129.00 C 767.39 129.00 772.23 129.00 777.06 129.00 C 777.07 134.06 777.04 139.12 777.08 144.17 C 781.72 136.41 789.03 129.90 798.06 127.96 Z" />
</g>
<g id="#555557ff">
<path fill="#555557" opacity="1.00" d=" M 130.55 102.11 C 134.56 101.65 138.69 100.78 142.65 102.05 C 144.48 102.56 146.30 103.14 148.12 103.72 C 146.64 105.39 145.18 107.08 143.73 108.78 C 143.14 108.76 141.94 108.70 141.34 108.68 C 128.74 107.19 115.87 107.83 103.66 111.42 C 101.20 111.74 98.72 111.44 96.26 111.41 L 96.66 110.72 C 97.86 107.76 100.31 105.73 103.32 104.74 C 112.36 103.55 121.47 102.93 130.55 102.11 Z" />
</g>
<g id="#67465eff">
<path fill="#67465e" opacity="1.00" d=" M 142.65 102.05 C 148.12 102.25 153.56 102.76 159.00 103.35 C 178.68 105.52 198.45 106.72 218.12 108.87 C 217.87 108.21 217.35 106.89 217.09 106.22 C 217.87 107.14 218.40 108.22 218.86 109.32 C 209.87 109.02 201.02 110.83 192.04 110.63 C 186.40 111.58 180.69 111.57 175.00 111.79 C 167.60 112.96 160.08 112.47 152.66 113.42 C 152.23 108.86 147.21 108.87 143.73 108.78 C 145.18 107.08 146.64 105.39 148.12 103.72 C 146.30 103.14 144.48 102.56 142.65 102.05 Z" />
</g>
<g id="#5e4054ff">
<path fill="#5e4054" opacity="1.00" d=" M 86.94 106.19 C 90.77 105.95 94.58 105.43 98.34 104.71 C 100.00 104.74 101.66 104.77 103.32 104.74 C 100.31 105.73 97.86 107.76 96.66 110.72 C 86.67 110.95 76.78 109.62 66.83 109.23 C 66.72 108.80 66.50 107.94 66.39 107.50 L 67.06 107.52 C 73.72 107.85 80.31 106.64 86.94 106.19 Z" />
</g>
<g id="#576a5fff">
<path fill="#576a5f" opacity="1.00" d=" M 103.66 111.42 C 115.87 107.83 128.74 107.19 141.34 108.68 C 140.57 110.40 139.78 112.11 138.99 113.83 C 127.20 113.07 115.43 112.42 103.66 111.42 Z" />
</g>
<g id="#6c635bff">
<path fill="#6c635b" opacity="1.00" d=" M 141.34 108.68 C 141.94 108.70 143.14 108.76 143.73 108.78 C 147.21 108.87 152.23 108.86 152.66 113.42 C 148.11 113.74 143.55 113.92 138.99 113.83 C 139.78 112.11 140.57 110.40 141.34 108.68 Z" />
</g>
<g id="#327f708f">
<path fill="#327f70" opacity="0.56" d=" M 123.02 116.05 C 128.83 116.01 134.60 114.18 140.40 115.41 L 139.61 115.47 L 138.35 115.60 C 129.69 116.95 120.88 116.42 112.20 117.56 C 111.70 117.60 110.70 117.69 110.20 117.73 L 109.07 117.28 C 108.83 117.19 108.37 116.99 108.13 116.89 C 113.07 116.27 118.05 116.10 123.02 116.05 Z" />
</g>
<g id="#fbce56ff">
<path fill="#fbce56" opacity="1.00" d=" M 140.40 115.41 C 143.08 115.21 145.77 115.35 148.45 115.41 C 148.27 116.35 148.42 117.24 148.91 118.06 C 149.46 121.63 151.25 124.82 152.85 128.01 C 154.28 130.72 155.82 133.63 158.49 135.33 C 162.99 136.94 166.36 132.71 170.43 131.71 C 171.48 134.04 172.47 136.43 172.95 138.96 C 172.89 140.75 172.89 142.54 173.00 144.33 C 172.29 142.35 171.47 140.40 170.52 138.52 C 170.17 138.35 169.47 138.02 169.12 137.85 C 166.34 139.20 163.92 141.29 160.95 142.26 C 158.71 141.74 157.18 139.87 155.91 138.08 C 152.19 132.67 149.84 126.47 147.84 120.25 C 147.26 118.83 146.93 117.21 145.83 116.09 C 144.24 115.67 142.59 115.60 140.96 115.51 L 139.61 115.47 L 140.40 115.41 Z" />
</g>
<g id="#86287d97">
<path fill="#86287d" opacity="0.59" d=" M 148.45 115.41 L 148.49 114.67 C 158.58 116.44 168.86 115.73 178.98 117.11 C 183.74 117.60 188.56 117.01 193.28 117.89 L 192.36 118.43 L 191.71 118.43 C 178.74 117.85 165.80 116.91 152.82 116.26 C 151.61 116.14 150.39 116.02 149.18 115.89 C 149.11 116.43 148.97 117.52 148.91 118.06 C 148.42 117.24 148.27 116.35 148.45 115.41 Z" />
</g>
<g id="#65faeeff">
<path fill="#65faee" opacity="1.00" d=" M 112.20 117.56 C 120.88 116.42 129.69 116.95 138.35 115.60 L 138.55 116.14 C 138.82 121.86 141.15 128.24 137.75 133.47 C 136.76 133.04 135.64 131.45 134.50 132.44 C 127.81 136.77 125.41 144.79 121.11 151.09 C 120.08 150.38 119.06 149.66 118.03 148.95 C 117.51 143.73 114.41 139.31 110.36 136.16 C 110.33 129.91 111.13 123.70 112.20 117.56 Z" />
</g>
<g id="#cafb59ff">
<path fill="#cafb59" opacity="1.00" d=" M 138.35 115.60 L 139.61 115.47 L 140.96 115.51 C 143.43 125.63 147.78 135.09 152.02 144.57 L 151.80 146.55 C 150.18 143.51 148.37 140.58 146.33 137.81 C 145.24 141.22 145.70 144.83 145.91 148.34 C 144.81 144.16 144.04 139.87 142.41 135.85 C 138.61 137.63 134.97 139.74 131.34 141.86 C 133.33 137.12 139.78 136.12 141.06 130.98 C 142.05 125.96 141.42 120.46 138.55 116.14 L 138.35 115.60 Z" />
</g>
<g id="#faf955ff">
<path fill="#faf955" opacity="1.00" d=" M 140.96 115.51 C 142.59 115.60 144.24 115.67 145.83 116.09 C 146.93 117.21 147.26 118.83 147.84 120.25 C 149.84 126.47 152.19 132.67 155.91 138.08 C 157.18 139.87 158.71 141.74 160.95 142.26 C 163.92 141.29 166.34 139.20 169.12 137.85 C 169.88 143.30 170.91 149.20 168.23 154.32 C 166.09 155.66 163.54 158.93 160.79 157.24 C 156.67 154.01 154.61 148.97 152.02 144.57 C 147.78 135.09 143.43 125.63 140.96 115.51 Z" />
</g>
<g id="#fa5be1ff">
<path fill="#fa5be1" opacity="1.00" d=" M 148.91 118.06 C 148.97 117.52 149.11 116.43 149.18 115.89 C 150.39 116.02 151.61 116.14 152.82 116.26 C 155.10 119.87 158.15 123.34 162.39 124.56 C 165.60 125.01 168.77 123.84 171.99 123.93 C 174.12 125.89 174.68 128.87 175.60 131.49 C 176.16 137.76 176.64 144.12 175.48 150.36 C 174.97 146.11 174.42 141.87 174.05 137.60 C 173.89 134.28 172.74 131.14 171.63 128.05 C 167.37 127.83 164.11 131.53 160.01 131.41 C 154.36 128.93 152.42 122.60 148.91 118.06 Z" />
<path fill="#fa5be1" opacity="1.00" d=" M 217.48 120.00 L 218.38 119.18 L 218.62 120.55 C 219.35 124.17 219.17 127.88 218.44 131.49 C 217.79 127.69 217.38 123.85 217.48 120.00 Z" />
</g>
<g id="#73f990ff">
<path fill="#73f990" opacity="1.00" d=" M 138.55 116.14 C 141.42 120.46 142.05 125.96 141.06 130.98 C 139.78 136.12 133.33 137.12 131.34 141.86 C 126.44 151.48 126.64 162.54 126.08 173.04 C 125.52 178.49 126.19 183.94 126.46 189.39 L 124.70 189.47 L 124.70 188.61 C 126.31 173.27 123.56 157.23 129.32 142.52 C 130.71 138.39 134.54 136.06 137.75 133.47 C 141.15 128.24 138.82 121.86 138.55 116.14 Z" />
<path fill="#73f990" opacity="1.00" d=" M 199.21 119.22 C 202.14 126.19 201.68 134.01 202.79 141.39 C 202.97 149.02 203.52 156.77 205.85 164.08 C 207.54 164.39 209.42 164.24 210.99 165.00 C 212.50 166.59 213.59 168.52 214.73 170.38 C 216.10 173.93 216.60 177.96 219.05 181.00 C 217.62 181.13 216.62 180.58 216.06 179.34 C 215.22 174.92 213.55 170.59 210.33 167.34 C 208.91 167.80 207.50 168.27 206.08 168.74 C 205.18 166.40 204.25 164.07 203.55 161.66 C 202.72 153.78 201.96 145.89 201.30 137.99 C 200.76 131.71 199.46 125.52 199.21 119.22 Z" />
</g>
<g id="#fc43faff">
<path fill="#fc43fa" opacity="1.00" d=" M 152.82 116.26 C 165.80 116.91 178.74 117.85 191.71 118.43 C 190.83 126.10 189.11 134.66 182.66 139.68 C 180.23 137.02 177.70 134.43 175.60 131.49 C 174.68 128.87 174.12 125.89 171.99 123.93 C 168.77 123.84 165.60 125.01 162.39 124.56 C 158.15 123.34 155.10 119.87 152.82 116.26 Z" />
</g>
<g id="#f8f66aff">
<path fill="#f8f66a" opacity="1.00" d=" M 100.28 117.57 C 102.52 117.57 104.76 117.52 107.01 117.56 C 105.57 127.35 104.07 137.14 103.15 147.00 C 102.57 152.44 103.44 157.95 102.51 163.36 C 100.96 168.51 100.72 174.22 97.31 178.64 C 97.08 168.29 99.67 158.11 99.44 147.76 C 100.42 138.13 101.19 128.39 100.43 118.72 L 100.28 117.57 Z" />
</g>
<g id="#d1fa5eff">
<path fill="#d1fa5e" opacity="1.00" d=" M 107.01 117.56 C 107.52 117.49 108.55 117.35 109.07 117.28 C 106.60 125.97 105.60 134.99 104.78 143.96 C 104.37 147.91 105.04 151.84 105.77 155.71 C 107.84 154.78 109.90 153.77 112.14 153.29 C 113.89 153.96 114.23 156.12 114.96 157.64 C 117.14 164.41 118.33 171.53 118.44 178.64 C 116.00 173.23 115.96 167.04 113.11 161.80 C 112.59 160.49 110.80 159.73 109.62 160.64 C 107.41 161.97 105.30 163.92 102.51 163.36 C 103.44 157.95 102.57 152.44 103.15 147.00 C 104.07 137.14 105.57 127.35 107.01 117.56 Z" />
</g>
<g id="#78f89dff">
<path fill="#78f89d" opacity="1.00" d=" M 109.07 117.28 L 110.20 117.73 C 108.54 125.06 106.92 132.45 106.51 139.97 C 106.47 142.52 106.22 145.24 107.36 147.61 C 109.47 147.78 111.57 147.56 113.68 147.42 C 116.82 152.88 117.46 159.25 118.65 165.33 C 119.42 172.90 120.18 180.50 121.76 187.96 C 121.29 188.02 120.34 188.14 119.87 188.20 L 119.83 187.97 C 119.40 184.85 118.93 181.75 118.44 178.64 C 118.33 171.53 117.14 164.41 114.96 157.64 C 114.23 156.12 113.89 153.96 112.14 153.29 C 109.90 153.77 107.84 154.78 105.77 155.71 C 105.04 151.84 104.37 147.91 104.78 143.96 C 105.60 134.99 106.60 125.97 109.07 117.28 Z" />
</g>
<g id="#70f9daff">
<path fill="#70f9da" opacity="1.00" d=" M 110.20 117.73 C 110.70 117.69 111.70 117.60 112.20 117.56 C 111.13 123.70 110.33 129.91 110.36 136.16 C 114.41 139.31 117.51 143.73 118.03 148.95 C 118.46 154.40 119.34 159.86 118.65 165.33 C 117.46 159.25 116.82 152.88 113.68 147.42 C 111.57 147.56 109.47 147.78 107.36 147.61 C 106.22 145.24 106.47 142.52 106.51 139.97 C 106.92 132.45 108.54 125.06 110.20 117.73 Z" />
</g>
<g id="#fa66a6ff">
<path fill="#fa66a6" opacity="1.00" d=" M 148.91 118.06 C 152.42 122.60 154.36 128.93 160.01 131.41 C 164.11 131.53 167.37 127.83 171.63 128.05 C 172.74 131.14 173.89 134.28 174.05 137.60 L 172.95 138.96 C 172.47 136.43 171.48 134.04 170.43 131.71 C 166.36 132.71 162.99 136.94 158.49 135.33 C 155.82 133.63 154.28 130.72 152.85 128.01 C 151.25 124.82 149.46 121.63 148.91 118.06 Z" />
</g>
<g id="#f84aaffb">
<path fill="#f84aaf" opacity="1.00" d=" M 75.02 119.49 C 76.70 119.29 78.40 119.21 80.09 119.15 C 78.51 129.80 75.88 140.58 69.58 149.50 C 68.71 150.95 67.02 151.44 65.58 152.12 C 65.83 150.42 65.93 148.55 67.21 147.26 C 74.00 139.84 76.34 129.55 77.91 119.90 C 77.19 119.80 75.74 119.59 75.02 119.49 Z" />
</g>
<g id="#fac762ff">
<path fill="#fac762" opacity="1.00" d=" M 80.09 119.15 L 80.22 118.63 C 83.39 118.78 86.56 118.63 89.74 118.57 C 85.26 123.80 82.30 130.16 80.19 136.67 C 77.44 148.45 77.19 160.63 75.27 172.55 C 73.49 165.17 76.21 157.62 74.75 150.25 C 74.38 150.15 73.63 149.95 73.26 149.85 C 70.94 152.26 68.86 154.99 65.79 156.52 C 65.74 155.05 65.65 153.58 65.58 152.12 C 67.02 151.44 68.71 150.95 69.58 149.50 C 75.88 140.58 78.51 129.80 80.09 119.15 Z" />
</g>
<g id="#fb4afaff">
<path fill="#fb4afa" opacity="1.00" d=" M 89.74 118.57 C 91.81 118.51 93.91 118.42 95.92 117.84 C 96.87 117.73 98.77 117.52 99.72 117.41 C 97.96 122.78 97.42 128.42 96.72 133.99 C 93.66 150.68 92.87 167.81 94.34 184.71 C 94.18 184.70 93.87 184.69 93.71 184.69 C 91.43 184.62 89.09 184.69 86.93 183.85 C 84.51 183.58 82.05 183.65 79.66 183.18 C 77.95 182.75 76.23 182.39 74.49 182.13 C 74.58 178.93 74.87 175.73 75.27 172.55 C 77.19 160.63 77.44 148.45 80.19 136.67 C 82.30 130.16 85.26 123.80 89.74 118.57 Z" />
</g>
<g id="#f96af5ff">
<path fill="#f96af5" opacity="1.00" d=" M 99.72 117.41 L 100.43 118.72 C 101.19 128.39 100.42 138.13 99.44 147.76 C 98.06 160.12 96.58 172.47 94.34 184.71 C 92.87 167.81 93.66 150.68 96.72 133.99 C 97.42 128.42 97.96 122.78 99.72 117.41 Z" />
</g>
<g id="#fa56f9ff">
<path fill="#fa56f9" opacity="1.00" d=" M 191.71 118.43 L 192.36 118.43 C 194.99 123.17 195.75 128.61 196.63 133.87 C 198.94 150.33 199.21 167.08 197.65 183.62 C 196.37 183.89 195.11 184.25 193.85 184.55 C 188.79 185.47 183.66 185.85 178.57 186.54 C 177.06 174.52 175.95 162.45 175.48 150.36 C 176.64 144.12 176.16 137.76 175.60 131.49 C 177.70 134.43 180.23 137.02 182.66 139.68 C 189.11 134.66 190.83 126.10 191.71 118.43 Z" />
<path fill="#fa56f9" opacity="1.00" d=" M 218.62 120.55 L 219.58 120.47 C 219.66 126.94 219.84 133.42 219.51 139.89 C 218.94 137.12 218.57 134.31 218.44 131.49 C 219.17 127.88 219.35 124.17 218.62 120.55 Z" />
</g>
<g id="#f898a9ff">
<path fill="#f898a9" opacity="1.00" d=" M 192.36 118.43 C 192.82 118.46 193.75 118.50 194.21 118.53 C 198.55 130.12 198.93 142.62 200.09 154.80 C 200.92 164.36 199.72 173.89 199.35 183.43 C 198.92 183.48 198.07 183.57 197.65 183.62 C 199.21 167.08 198.94 150.33 196.63 133.87 C 195.75 128.61 194.99 123.17 192.36 118.43 Z" />
</g>
<g id="#f6f875ff">
<path fill="#f6f875" opacity="1.00" d=" M 194.21 118.53 C 195.80 118.55 197.39 118.58 198.98 118.62 L 199.21 119.22 C 199.46 125.52 200.76 131.71 201.30 137.99 C 201.96 145.89 202.72 153.78 203.55 161.66 C 203.44 163.29 203.32 164.92 203.19 166.55 C 202.73 166.24 201.80 165.61 201.33 165.30 C 200.88 161.80 200.66 158.28 200.09 154.80 C 198.93 142.62 198.55 130.12 194.21 118.53 Z" />
</g>
<g id="#68f5f8ff">
<path fill="#68f5f8" opacity="1.00" d=" M 198.98 118.62 C 201.68 118.71 204.39 118.70 207.10 118.78 C 209.35 119.49 211.73 119.50 214.06 119.57 C 214.98 126.06 215.94 132.54 217.12 138.98 C 216.56 143.01 214.02 146.23 211.95 149.58 C 210.60 152.55 211.04 155.98 211.00 159.16 C 209.00 157.87 206.17 157.01 205.66 154.36 C 204.55 150.07 204.44 145.55 202.79 141.39 C 201.68 134.01 202.14 126.19 199.21 119.22 L 198.98 118.62 Z" />
</g>
<g id="#fd2dfdff">
<path fill="#fd2dfd" opacity="1.00" d=" M 65.51 120.48 C 68.56 119.43 71.84 119.55 75.02 119.49 C 75.74 119.59 77.19 119.80 77.91 119.90 C 76.34 129.55 74.00 139.84 67.21 147.26 C 65.93 148.55 65.83 150.42 65.58 152.12 L 65.54 150.75 C 65.46 140.66 65.59 130.57 65.51 120.48 Z" />
</g>
<g id="#f2ee70ff">
<path fill="#f2ee70" opacity="1.00" d=" M 214.06 119.57 C 214.92 119.68 216.63 119.89 217.48 120.00 C 217.38 123.85 217.79 127.69 218.44 131.49 C 218.57 134.31 218.94 137.12 219.51 139.89 C 219.80 152.25 219.69 164.63 219.85 177.01 C 219.73 178.32 220.14 179.96 219.14 181.02 C 219.11 166.99 220.25 152.78 217.12 138.98 C 215.94 132.54 214.98 126.06 214.06 119.57 Z" />
</g>
<g id="#78f8eaff">
<path fill="#78f8ea" opacity="1.00" d=" M 134.50 132.44 C 135.64 131.45 136.76 133.04 137.75 133.47 C 134.54 136.06 130.71 138.39 129.32 142.52 C 123.56 157.23 126.31 173.27 124.70 188.61 C 123.96 188.45 122.50 188.12 121.76 187.96 C 120.18 180.50 119.42 172.90 118.65 165.33 C 119.34 159.86 118.46 154.40 118.03 148.95 C 119.06 149.66 120.08 150.38 121.11 151.09 C 125.41 144.79 127.81 136.77 134.50 132.44 Z" />
</g>
<g id="#f8f563ff">
<path fill="#f8f563" opacity="1.00" d=" M 131.34 141.86 C 134.97 139.74 138.61 137.63 142.41 135.85 C 144.04 139.87 144.81 144.16 145.91 148.34 C 146.51 151.33 147.24 154.30 147.88 157.29 C 148.41 160.34 149.09 163.37 149.70 166.40 C 150.82 174.26 153.12 181.94 153.72 189.87 C 153.00 189.98 151.56 190.21 150.85 190.33 C 150.24 180.72 147.80 171.35 146.07 161.91 C 145.00 156.58 144.10 151.12 141.41 146.31 C 139.51 146.32 137.60 146.33 135.70 146.33 C 132.88 149.63 130.96 153.65 130.21 157.93 C 128.32 168.28 127.81 178.92 128.87 189.39 C 128.27 189.39 127.06 189.39 126.46 189.39 C 126.19 183.94 125.52 178.49 126.08 173.04 C 126.64 162.54 126.44 151.48 131.34 141.86 Z" />
</g>
<g id="#87f87aff">
<path fill="#87f87a" opacity="1.00" d=" M 145.91 148.34 C 145.70 144.83 145.24 141.22 146.33 137.81 C 148.37 140.58 150.18 143.51 151.80 146.55 C 154.59 152.49 156.80 159.23 161.94 163.61 C 164.28 163.15 166.42 162.06 168.57 161.09 C 169.80 164.10 170.94 167.15 171.73 170.31 C 172.33 175.83 173.80 181.26 173.63 186.84 L 172.99 188.09 C 172.34 181.31 171.82 174.33 169.24 167.96 C 168.28 164.70 164.76 167.62 162.52 167.39 C 160.87 166.47 159.58 165.03 158.55 163.48 C 154.77 157.26 152.87 149.83 147.72 144.49 C 147.47 148.75 147.59 153.03 147.88 157.29 C 147.24 154.30 146.51 151.33 145.91 148.34 Z" />
</g>
<g id="#f7f76cff">
<path fill="#f7f76c" opacity="1.00" d=" M 169.12 137.85 C 169.47 138.02 170.17 138.35 170.52 138.52 C 171.47 140.40 172.29 142.35 173.00 144.33 C 174.68 158.45 175.09 172.69 177.25 186.76 C 176.04 186.80 174.83 186.82 173.63 186.84 C 173.80 181.26 172.33 175.83 171.73 170.31 C 171.86 164.81 171.50 158.98 168.23 154.32 C 170.91 149.20 169.88 143.30 169.12 137.85 Z" />
</g>
<g id="#f89b9cff">
<path fill="#f89b9c" opacity="1.00" d=" M 172.95 138.96 L 174.05 137.60 C 174.42 141.87 174.97 146.11 175.48 150.36 C 175.95 162.45 177.06 174.52 178.57 186.54 L 177.25 186.76 C 175.09 172.69 174.68 158.45 173.00 144.33 C 172.89 142.54 172.89 140.75 172.95 138.96 Z" />
</g>
<g id="#5ef7f9ff">
<path fill="#5ef7f9" opacity="1.00" d=" M 217.12 138.98 C 220.25 152.78 219.11 166.99 219.14 181.02 L 219.05 181.00 C 216.60 177.96 216.10 173.93 214.73 170.38 C 214.00 166.48 212.57 162.78 211.00 159.16 C 211.04 155.98 210.60 152.55 211.95 149.58 C 214.02 146.23 216.56 143.01 217.12 138.98 Z" />
</g>
<g id="#70f9d8ff">
<path fill="#70f9d8" opacity="1.00" d=" M 202.79 141.39 C 204.44 145.55 204.55 150.07 205.66 154.36 C 206.17 157.01 209.00 157.87 211.00 159.16 C 212.57 162.78 214.00 166.48 214.73 170.38 C 213.59 168.52 212.50 166.59 210.99 165.00 C 209.42 164.24 207.54 164.39 205.85 164.08 C 203.52 156.77 202.97 149.02 202.79 141.39 Z" />
</g>
<g id="#81f7daff">
<path fill="#81f7da" opacity="1.00" d=" M 147.72 144.49 C 152.87 149.83 154.77 157.26 158.55 163.48 C 159.58 165.03 160.87 166.47 162.52 167.39 C 164.76 167.62 168.28 164.70 169.24 167.96 C 171.82 174.33 172.34 181.31 172.99 188.09 L 172.58 187.04 C 170.87 182.51 170.99 177.47 168.89 173.08 C 167.08 170.49 162.86 172.64 160.90 170.17 C 157.26 165.94 154.89 160.82 152.29 155.93 C 149.72 158.79 150.14 162.85 149.70 166.40 C 149.09 163.37 148.41 160.34 147.88 157.29 C 147.59 153.03 147.47 148.75 147.72 144.49 Z" />
</g>
<g id="#dafa63ff">
<path fill="#dafa63" opacity="1.00" d=" M 152.02 144.57 C 154.61 148.97 156.67 154.01 160.79 157.24 C 163.54 158.93 166.09 155.66 168.23 154.32 C 171.50 158.98 171.86 164.81 171.73 170.31 C 170.94 167.15 169.80 164.10 168.57 161.09 C 166.42 162.06 164.28 163.15 161.94 163.61 C 156.80 159.23 154.59 152.49 151.80 146.55 L 152.02 144.57 Z" />
</g>
<g id="#f582f4ff">
<path fill="#f582f4" opacity="1.00" d=" M 130.21 157.93 C 130.96 153.65 132.88 149.63 135.70 146.33 C 137.60 146.33 139.51 146.32 141.41 146.31 C 144.10 151.12 145.00 156.58 146.07 161.91 C 147.80 171.35 150.24 180.72 150.85 190.33 C 149.79 190.46 148.74 190.56 147.69 190.64 C 147.56 183.54 146.25 176.54 145.11 169.55 C 144.21 164.91 143.47 160.03 140.98 155.92 C 139.70 155.02 137.98 155.25 136.53 155.50 C 133.69 158.43 132.75 162.61 131.94 166.48 C 130.80 174.16 129.81 182.05 131.44 189.75 C 130.79 189.66 129.51 189.48 128.87 189.39 C 127.81 178.92 128.32 168.28 130.21 157.93 Z" />
</g>
<g id="#fb804cff">
<path fill="#fb804c" opacity="1.00" d=" M 94.34 184.71 C 96.58 172.47 98.06 160.12 99.44 147.76 C 99.67 158.11 97.08 168.29 97.31 178.64 C 96.83 180.68 96.41 182.74 96.00 184.80 C 95.59 184.78 94.76 184.73 94.34 184.71 Z" />
<path fill="#fb804c" opacity="1.00" d=" M 106.78 182.57 C 108.01 182.52 109.24 182.47 110.47 182.42 C 111.32 184.03 112.17 185.64 113.02 187.26 C 111.08 187.19 109.16 186.94 107.27 186.51 C 106.41 186.32 105.55 186.14 104.69 185.97 C 105.39 184.84 106.08 183.70 106.78 182.57 Z" />
</g>
<g id="#faf758ff">
<path fill="#faf758" opacity="1.00" d=" M 65.79 156.52 C 68.86 154.99 70.94 152.26 73.26 149.85 C 73.63 149.95 74.38 150.15 74.75 150.25 C 76.21 157.62 73.49 165.17 75.27 172.55 C 74.87 175.73 74.58 178.93 74.49 182.13 C 73.30 181.96 72.10 181.81 70.91 181.63 C 70.77 178.19 70.87 174.63 69.58 171.37 C 68.28 171.34 66.99 171.46 65.70 171.53 C 65.69 166.53 65.78 161.52 65.79 156.52 Z" />
</g>
<g id="#6c642c89">
<path fill="#6c642c" opacity="0.54" d=" M 65.54 150.75 L 65.58 152.12 C 65.65 153.58 65.74 155.05 65.79 156.52 C 65.78 161.52 65.69 166.53 65.70 171.53 C 65.68 174.61 65.71 177.69 65.79 180.77 C 67.50 181.06 69.20 181.36 70.91 181.63 C 72.10 181.81 73.30 181.96 74.49 182.13 C 76.23 182.39 77.95 182.75 79.66 183.18 C 74.86 182.81 69.98 182.87 65.35 181.41 C 65.25 171.20 64.85 160.95 65.54 150.75 Z" />
</g>
<g id="#f6fa61ff">
<path fill="#f6fa61" opacity="1.00" d=" M 136.53 155.50 C 137.98 155.25 139.70 155.02 140.98 155.92 C 143.47 160.03 144.21 164.91 145.11 169.55 C 146.25 176.54 147.56 183.54 147.69 190.64 C 146.29 190.70 144.90 190.74 143.51 190.77 C 143.69 183.36 144.07 175.62 141.34 168.59 C 140.86 166.76 138.96 166.35 137.40 165.90 C 133.16 173.26 133.21 181.97 133.93 190.18 C 133.10 190.03 132.27 189.88 131.44 189.75 C 129.81 182.05 130.80 174.16 131.94 166.48 C 132.75 162.61 133.69 158.43 136.53 155.50 Z" />
</g>
<g id="#f0fa58ff">
<path fill="#f0fa58" opacity="1.00" d=" M 200.09 154.80 C 200.66 158.28 200.88 161.80 201.33 165.30 C 201.80 165.61 202.73 166.24 203.19 166.55 C 203.95 168.88 204.76 171.20 205.66 173.48 C 207.24 172.68 208.82 171.88 210.39 171.07 C 212.61 173.59 214.59 176.32 216.06 179.34 C 216.29 179.83 216.75 180.81 216.97 181.30 C 212.74 181.92 208.47 182.29 204.27 183.16 C 202.63 183.28 200.99 183.32 199.35 183.43 C 199.72 173.89 200.92 164.36 200.09 154.80 Z" />
</g>
<g id="#6df9f1ff">
<path fill="#6df9f1" opacity="1.00" d=" M 149.70 166.40 C 150.14 162.85 149.72 158.79 152.29 155.93 C 154.89 160.82 157.26 165.94 160.90 170.17 C 162.86 172.64 167.08 170.49 168.89 173.08 C 170.99 177.47 170.87 182.51 172.58 187.04 C 168.44 187.96 164.17 188.10 160.03 189.05 C 157.93 189.34 155.81 189.56 153.72 189.87 C 153.12 181.94 150.82 174.26 149.70 166.40 Z" />
</g>
<g id="#fbf84eff">
<path fill="#fbf84e" opacity="1.00" d=" M 109.62 160.64 C 110.80 159.73 112.59 160.49 113.11 161.80 C 115.96 167.04 116.00 173.23 118.44 178.64 C 118.93 181.75 119.40 184.85 119.83 187.97 C 117.56 187.74 115.29 187.46 113.02 187.26 C 112.17 185.64 111.32 184.03 110.47 182.42 C 109.24 182.47 108.01 182.52 106.78 182.57 C 106.08 183.70 105.39 184.84 104.69 185.97 C 101.81 185.51 98.91 185.13 96.00 184.80 C 96.41 182.74 96.83 180.68 97.31 178.64 C 100.72 174.22 100.96 168.51 102.51 163.36 C 105.30 163.92 107.41 161.97 109.62 160.64 Z" />
</g>
<g id="#c2fa62ff">
<path fill="#c2fa62" opacity="1.00" d=" M 203.55 161.66 C 204.25 164.07 205.18 166.40 206.08 168.74 C 207.50 168.27 208.91 167.80 210.33 167.34 C 213.55 170.59 215.22 174.92 216.06 179.34 C 214.59 176.32 212.61 173.59 210.39 171.07 C 208.82 171.88 207.24 172.68 205.66 173.48 C 204.76 171.20 203.95 168.88 203.19 166.55 C 203.32 164.92 203.44 163.29 203.55 161.66 Z" />
</g>
<g id="#b6fa5fff">
<path fill="#b6fa5f" opacity="1.00" d=" M 137.40 165.90 C 138.96 166.35 140.86 166.76 141.34 168.59 C 144.07 175.62 143.69 183.36 143.51 190.77 C 143.13 190.77 142.37 190.77 141.99 190.77 C 142.68 184.90 142.58 178.78 140.77 173.12 C 140.41 171.24 138.30 171.61 136.89 171.38 C 135.20 177.61 134.80 184.13 135.92 190.49 C 135.43 190.41 134.43 190.26 133.93 190.18 C 133.21 181.97 133.16 173.26 137.40 165.90 Z" />
</g>
<g id="#ddfb4dff">
<path fill="#ddfb4d" opacity="1.00" d=" M 65.70 171.53 C 66.99 171.46 68.28 171.34 69.58 171.37 C 70.87 174.63 70.77 178.19 70.91 181.63 C 69.20 181.36 67.50 181.06 65.79 180.77 C 65.71 177.69 65.68 174.61 65.70 171.53 Z" />
</g>
<g id="#75f8ccff">
<path fill="#75f8cc" opacity="1.00" d=" M 136.89 171.38 C 138.30 171.61 140.41 171.24 140.77 173.12 C 142.58 178.78 142.68 184.90 141.99 190.77 C 139.97 190.74 137.94 190.68 135.92 190.49 C 134.80 184.13 135.20 177.61 136.89 171.38 Z" />
</g>
<g id="#687b2d8b">
<path fill="#687b2d" opacity="0.55" d=" M 216.06 179.34 C 216.62 180.58 217.62 181.13 219.05 181.00 L 219.14 181.02 C 215.06 183.52 209.86 182.89 205.29 183.47 L 204.27 183.16 C 208.47 182.29 212.74 181.92 216.97 181.30 C 216.75 180.81 216.29 179.83 216.06 179.34 Z" />
</g>
<g id="#8e5a56a3">
<path fill="#8e5a56" opacity="0.64" d=" M 193.85 184.55 C 195.11 184.25 196.37 183.89 197.65 183.62 C 198.07 183.57 198.92 183.48 199.35 183.43 C 200.99 183.32 202.63 183.28 204.27 183.16 L 205.29 183.47 C 201.47 183.74 197.69 184.93 193.85 184.55 Z" />
</g>
<g id="#6f5a207b">
<path fill="#6f5a20" opacity="0.48" d=" M 94.34 184.71 C 94.76 184.73 95.59 184.78 96.00 184.80 C 98.91 185.13 101.81 185.51 104.69 185.97 C 105.55 186.14 106.41 186.32 107.27 186.51 C 102.72 186.30 97.97 186.59 93.71 184.69 C 93.87 184.69 94.18 184.70 94.34 184.71 Z" />
</g>
<g id="#3d304685">
<path fill="#3d3046" opacity="0.52" d=" M 112.03 190.03 C 114.71 189.75 117.26 188.84 119.87 188.20 C 120.34 188.14 121.29 188.02 121.76 187.96 C 122.50 188.12 123.96 188.45 124.70 188.61 L 124.70 189.47 C 120.62 189.79 116.56 190.32 112.50 190.79 C 101.17 191.88 89.87 193.21 78.59 194.69 C 76.77 194.89 74.96 195.06 73.14 195.19 C 72.57 195.21 71.43 195.23 70.86 195.25 C 71.83 194.73 72.85 194.39 73.93 194.21 C 86.67 193.17 99.30 191.18 112.03 190.03 Z" />
</g>
<g id="#817399ff">
<path fill="#817399" opacity="1.00" d=" M 112.50 190.79 C 116.56 190.32 120.62 189.79 124.70 189.47 L 126.46 189.39 C 127.06 189.39 128.27 189.39 128.87 189.39 C 129.51 189.48 130.79 189.66 131.44 189.75 C 132.27 189.88 133.10 190.03 133.93 190.18 C 134.43 190.26 135.43 190.41 135.92 190.49 C 137.94 190.68 139.97 190.74 141.99 190.77 C 142.37 190.77 143.13 190.77 143.51 190.77 C 144.90 190.74 146.29 190.70 147.69 190.64 C 148.74 190.56 149.79 190.46 150.85 190.33 C 151.56 190.21 153.00 189.98 153.72 189.87 C 155.81 189.56 157.93 189.34 160.03 189.05 C 165.86 189.49 171.62 190.63 177.47 190.88 C 168.28 195.99 157.53 196.08 147.38 197.46 C 140.84 198.36 134.14 198.02 127.73 196.41 C 122.71 194.31 116.74 194.64 112.50 190.79 Z" />
</g>
<g id="#825b97ff">
<path fill="#825b97" opacity="1.00" d=" M 78.59 194.69 C 89.87 193.21 101.17 191.88 112.50 190.79 C 116.74 194.64 122.71 194.31 127.73 196.41 C 121.76 198.09 114.86 196.59 109.62 200.43 C 101.22 198.62 92.60 198.24 84.14 196.78 C 82.18 196.43 80.37 195.54 78.59 194.69 Z" />
</g>
<g id="#8262a1ff">
<path fill="#8262a1" opacity="1.00" d=" M 177.47 190.88 L 177.86 190.69 C 184.15 192.39 190.84 192.09 197.25 193.39 C 186.48 196.92 175.08 197.42 163.99 199.34 C 152.93 200.43 142.14 203.34 131.04 204.04 C 128.29 204.25 125.58 203.64 122.95 202.89 C 118.60 201.59 114.05 201.34 109.62 200.43 C 114.86 196.59 121.76 198.09 127.73 196.41 C 134.14 198.02 140.84 198.36 147.38 197.46 C 157.53 196.08 168.28 195.99 177.47 190.88 Z" />
</g>
<g id="#9666b9ff">
<path fill="#9666b9" opacity="1.00" d=" M 163.99 199.34 C 175.08 197.42 186.48 196.92 197.25 193.39 C 204.50 193.82 211.68 195.23 218.95 195.55 C 218.60 196.40 218.23 197.24 217.86 198.08 C 212.81 197.88 207.89 199.02 202.96 199.95 C 188.34 202.36 173.82 205.35 159.16 207.51 C 154.00 208.23 148.92 209.62 143.69 209.82 C 142.07 209.60 140.46 209.29 138.85 208.99 C 132.71 207.74 126.50 206.89 120.33 205.80 C 121.20 204.82 122.07 203.85 122.95 202.89 C 125.58 203.64 128.29 204.25 131.04 204.04 C 142.14 203.34 152.93 200.43 163.99 199.34 Z" />
</g>
<g id="#47323cff">
<path fill="#47323c" opacity="1.00" d=" M 66.01 195.42 C 67.62 195.34 69.24 195.28 70.86 195.25 C 71.43 195.23 72.57 195.21 73.14 195.19 C 71.18 195.38 69.23 195.64 67.30 195.96 C 71.46 198.28 76.49 197.87 81.01 199.10 C 79.33 199.18 77.65 199.32 75.98 199.46 C 79.97 200.53 83.96 201.68 88.05 202.29 C 91.36 202.62 93.14 206.26 96.53 206.47 C 105.29 207.89 113.62 211.11 122.38 212.49 C 128.30 213.65 134.33 213.99 140.32 214.49 C 140.67 217.44 141.09 220.38 141.41 223.34 C 141.43 226.09 141.45 228.84 141.45 231.59 C 139.18 230.77 136.76 230.65 134.37 230.58 C 128.50 230.41 122.84 228.48 116.97 228.24 C 112.97 228.04 108.90 227.64 105.18 226.05 C 99.48 223.44 93.25 222.13 87.04 221.52 L 86.67 221.50 C 81.70 215.16 76.40 209.08 71.30 202.84 C 69.45 200.44 66.95 198.40 66.01 195.42 Z" />
</g>
<g id="#905eb0ff">
<path fill="#905eb0" opacity="1.00" d=" M 73.14 195.19 C 74.96 195.06 76.77 194.89 78.59 194.69 C 80.37 195.54 82.18 196.43 84.14 196.78 C 92.60 198.24 101.22 198.62 109.62 200.43 C 114.05 201.34 118.60 201.59 122.95 202.89 C 122.07 203.85 121.20 204.82 120.33 205.80 C 107.22 203.55 94.13 201.26 81.01 199.10 C 76.49 197.87 71.46 198.28 67.30 195.96 C 69.23 195.64 71.18 195.38 73.14 195.19 Z" />
</g>
<g id="#7f4c9eff">
<path fill="#7f4c9e" opacity="1.00" d=" M 202.96 199.95 C 207.89 199.02 212.81 197.88 217.86 198.08 C 210.98 206.18 204.11 214.30 197.47 222.60 L 197.02 222.69 C 192.97 223.37 188.91 224.32 185.32 226.39 C 183.23 227.73 180.62 227.43 178.39 228.40 C 172.58 231.00 166.38 232.71 160.09 233.67 C 155.03 234.63 149.78 235.24 145.17 237.71 C 145.19 234.57 144.83 231.43 143.79 228.45 C 143.32 222.25 143.44 216.02 143.69 209.82 C 148.92 209.62 154.00 208.23 159.16 207.51 C 173.82 205.35 188.34 202.36 202.96 199.95 Z" />
</g>
<g id="#4f3f40ff">
<path fill="#4f3f40" opacity="1.00" d=" M 75.98 199.46 C 77.65 199.32 79.33 199.18 81.01 199.10 C 94.13 201.26 107.22 203.55 120.33 205.80 C 126.50 206.89 132.71 207.74 138.85 208.99 C 139.79 209.36 140.72 209.75 141.65 210.15 C 141.78 214.55 141.64 218.95 141.41 223.34 C 141.09 220.38 140.67 217.44 140.32 214.49 C 134.33 213.99 128.30 213.65 122.38 212.49 C 113.62 211.11 105.29 207.89 96.53 206.47 C 93.14 206.26 91.36 202.62 88.05 202.29 C 83.96 201.68 79.97 200.53 75.98 199.46 Z" />
</g>
<g id="#572f6fff">
<path fill="#572f6f" opacity="1.00" d=" M 138.85 208.99 C 140.46 209.29 142.07 209.60 143.69 209.82 C 143.44 216.02 143.32 222.25 143.79 228.45 C 143.17 244.29 143.71 260.16 143.49 276.01 C 143.38 279.28 143.49 282.58 144.52 285.71 L 144.67 286.27 C 143.77 286.85 141.10 288.47 141.22 286.36 C 141.78 268.11 141.32 249.85 141.45 231.59 C 141.45 228.84 141.43 226.09 141.41 223.34 C 141.64 218.95 141.78 214.55 141.65 210.15 C 140.72 209.75 139.79 209.36 138.85 208.99 Z" />
</g>
<g id="#3c2437ff">
<path fill="#3c2437" opacity="1.00" d=" M 87.04 221.52 C 93.25 222.13 99.48 223.44 105.18 226.05 C 108.90 227.64 112.97 228.04 116.97 228.24 C 122.84 228.48 128.50 230.41 134.37 230.58 C 136.76 230.65 139.18 230.77 141.45 231.59 C 141.32 249.85 141.78 268.11 141.22 286.36 C 137.61 283.39 135.10 279.39 132.01 275.94 C 117.07 257.76 101.75 239.88 87.04 221.52 Z" />
</g>
<g id="#784198ff">
<path fill="#784198" opacity="1.00" d=" M 185.32 226.39 C 188.91 224.32 192.97 223.37 197.02 222.69 C 183.97 239.02 170.29 254.85 156.98 270.99 C 152.81 275.88 148.87 280.97 144.52 285.71 C 143.49 282.58 143.38 279.28 143.49 276.01 C 143.71 260.16 143.17 244.29 143.79 228.45 C 144.83 231.43 145.19 234.57 145.17 237.71 C 149.78 235.24 155.03 234.63 160.09 233.67 C 166.38 232.71 172.58 231.00 178.39 228.40 C 180.62 227.43 183.23 227.73 185.32 226.39 Z" />
</g>
</svg>
